<?xml version="1.0" encoding="UTF-8"?>
<!DOCTYPE svg PUBLIC "-//W3C//DTD SVG 1.1//EN" "http://www.w3.org/Graphics/SVG/1.1/DTD/svg11.dtd">
<svg xmlns="http://www.w3.org/2000/svg" version="1.1" width="510px" height="146px" style="shape-rendering:geometricPrecision; text-rendering:geometricPrecision; image-rendering:optimizeQuality; fill-rule:evenodd; clip-rule:evenodd" xmlns:xlink="http://www.w3.org/1999/xlink">
<g><path style="opacity:0.941" fill="#3cc3a6" d="M 420.5,7.5 C 433.068,7.58116 438.234,13.9145 436,26.5C 431.898,35.7464 425.398,37.9131 416.5,33C 409.031,22.9832 410.365,14.4832 420.5,7.5 Z"/></g>
<g><path style="opacity:0.972" fill="#3cc3a6" d="M 465.5,11.5 C 473.5,11.5 481.5,11.5 489.5,11.5C 489.5,22.8333 489.5,34.1667 489.5,45.5C 494.5,45.5 499.5,45.5 504.5,45.5C 504.5,54.8333 504.5,64.1667 504.5,73.5C 499.5,73.5 494.5,73.5 489.5,73.5C 489.5,96.8333 489.5,120.167 489.5,143.5C 481.5,143.5 473.5,143.5 465.5,143.5C 465.5,120.167 465.5,96.8333 465.5,73.5C 460.5,73.5 455.5,73.5 450.5,73.5C 450.5,64.5 450.5,55.5 450.5,46.5C 455.5,46.5 460.5,46.5 465.5,46.5C 465.5,34.8333 465.5,23.1667 465.5,11.5 Z"/></g>
<g><path style="opacity:0.967" fill="#3cc3a6" d="M 48.5,44.5 C 74.3195,46.8152 89.4862,60.8152 94,86.5C 94.4999,105.497 94.6666,124.497 94.5,143.5C 86.5,143.5 78.5,143.5 70.5,143.5C 70.6666,125.497 70.4999,107.497 70,89.5C 65.2995,74.066 55.4661,69.2327 40.5,75C 35.692,78.7892 32.5253,83.6225 31,89.5C 30.5001,107.497 30.3334,125.497 30.5,143.5C 22.5,143.5 14.5,143.5 6.5,143.5C 6.33338,123.831 6.50005,104.164 7,84.5C 11.9595,61.7031 25.7928,48.3698 48.5,44.5 Z"/></g>
<g><path style="opacity:0.969" fill="#3cc3a6" d="M 145.5,45.5 C 174.432,44.2323 191.599,57.899 197,86.5C 200.035,110.594 191.202,128.761 170.5,141C 146.753,148.873 128.587,142.039 116,120.5C 104.903,94.7408 109.403,72.2408 129.5,53C 134.542,49.6426 139.876,47.1426 145.5,45.5 Z M 148.5,72.5 C 161.041,71.2175 169.208,76.5509 173,88.5C 175.777,102.454 170.61,111.954 157.5,117C 149.184,118.427 142.684,115.594 138,108.5C 130.387,93.1058 133.887,81.1058 148.5,72.5 Z"/></g>
<g><path style="opacity:0.964" fill="#3cc3a6" d="M 246.5,45.5 C 274.142,43.5781 290.642,56.2448 296,83.5C 297.353,90.518 297.52,97.518 296.5,104.5C 276.167,105.167 255.833,105.833 235.5,106.5C 244.926,122.111 256.593,124.111 270.5,112.5C 275.49,117.658 280.323,122.991 285,128.5C 282.248,134.243 277.748,138.409 271.5,141C 245.223,148.944 226.39,140.444 215,115.5C 206.882,91.8128 211.715,71.3128 229.5,54C 234.712,50.0607 240.379,47.2273 246.5,45.5 Z M 250.5,70.5 C 260.833,69.4988 268.499,73.4988 273.5,82.5C 260.846,83.666 248.18,83.8326 235.5,83C 239.205,77.116 244.205,72.9493 250.5,70.5 Z"/></g>
<g><path style="opacity:0.965" fill="#3cc3a6" d="M 310.5,46.5 C 327.412,43.6369 341.745,48.3036 353.5,60.5C 365.255,48.3036 379.588,43.6369 396.5,46.5C 396.5,55.1667 396.5,63.8333 396.5,72.5C 373.294,70.5328 363.46,80.8661 367,103.5C 369.263,110.097 373.763,114.264 380.5,116C 385.823,116.499 391.156,116.666 396.5,116.5C 396.5,125.5 396.5,134.5 396.5,143.5C 379.277,146.206 364.943,141.206 353.5,128.5C 342.018,141.218 327.684,146.218 310.5,143.5C 310.5,134.5 310.5,125.5 310.5,116.5C 334.313,119.191 344.146,108.858 340,85.5C 336.911,78.7438 331.745,74.5771 324.5,73C 319.845,72.5008 315.179,72.3342 310.5,72.5C 310.5,63.8333 310.5,55.1667 310.5,46.5 Z"/></g>
<g><path style="opacity:0.984" fill="#3cc3a6" d="M 412.5,46.5 C 420.5,46.5 428.5,46.5 436.5,46.5C 436.5,78.8333 436.5,111.167 436.5,143.5C 428.5,143.5 420.5,143.5 412.5,143.5C 412.5,111.167 412.5,78.8333 412.5,46.5 Z"/></g>
</svg>
